<svg xmlns="http://www.w3.org/2000/svg" width="35.74" height="103.252" viewBox="0 0 35.74 103.252">
  <g id="Group_1073" data-name="Group 1073" transform="translate(-717 -947)">
    <g id="Group_593" data-name="Group 593" transform="translate(1134.346 1013.548)">
      <g id="Group_1035" data-name="Group 1035" transform="translate(-417)">
        <path id="Path_709" data-name="Path 709" d="M17.7,0a17.7,17.7,0,0,1,17.7,17.7v1.311A17.7,17.7,0,0,1,0,19.008V17.7A17.7,17.7,0,0,1,17.7,0Z" fill="#8b8f93"/>
        <g id="Group_1034" data-name="Group 1034" transform="translate(11.341 11.997)">
          <path id="Path_134" data-name="Path 134" d="M1631.919,931.545l12.711-12.712" transform="translate(-1631.919 -918.833)" fill="none" stroke="#fff" stroke-linecap="round" stroke-linejoin="round" stroke-width="3"/>
          <path id="Path_708" data-name="Path 708" d="M0,12.711,12.711,0" transform="translate(12.712) rotate(90)" fill="none" stroke="#fff" stroke-linecap="round" stroke-linejoin="round" stroke-width="3"/>
        </g>
      </g>
    </g>
    <g id="Group_1069" data-name="Group 1069" transform="translate(673.346 946.802)">
      <rect id="Rectangle_21" data-name="Rectangle 21" width="35" height="37" rx="17.5" transform="translate(43.654 0.199)" fill="#06aecc"/>
      <path id="Path_134-2" data-name="Path 134" d="M1627.065,925.183l6.362,6.362,12.711-12.712" transform="translate(-1575.646 -905.808)" fill="none" stroke="#fff" stroke-linecap="round" stroke-linejoin="round" stroke-width="3"/>
    </g>
  </g>
</svg>
