<svg id="Group_39" data-name="Group 39" xmlns="http://www.w3.org/2000/svg" width="448.803" height="247.418" viewBox="0 0 448.803 247.418">
  <g id="car" transform="translate(0 69.08)">
    <g id="car-2" data-name="car">
      <path id="Rectangle_1" data-name="Rectangle 1" d="M0,0H79.15a0,0,0,0,1,0,0V7.445A39.575,39.575,0,0,1,39.575,47.02h0A39.575,39.575,0,0,1,0,7.445V0A0,0,0,0,1,0,0Z" transform="translate(382.109 138.861) rotate(-180)" fill="#2c3e50"/>
      <g id="Group_6" data-name="Group 6" transform="translate(299.522 88.769)">
        <circle id="Ellipse_1" data-name="Ellipse 1" cx="32.92" cy="32.92" r="32.92" transform="translate(0 25.196) rotate(-22.5)" fill="#333"/>
        <path id="Path_19" data-name="Path 19" d="M554.951,451.617a22.439,22.439,0,1,1,43.5,7.75H556.326A22.386,22.386,0,0,1,554.951,451.617Z" transform="translate(-534.378 -408.605)" fill="#22313f"/>
        <path id="Path_20" data-name="Path 20" d="M599.175,475.18a22.448,22.448,0,0,1-42.129,0Z" transform="translate(-535.098 -424.418)" fill="#f3e8d5"/>
        <circle id="Ellipse_2" data-name="Ellipse 2" cx="17.547" cy="17.547" r="17.547" transform="translate(18.197 43.012) rotate(-45)" fill="#5c6d7e"/>
        <g id="Group_5" data-name="Group 5" transform="translate(17.437 17.437)">
          <g id="Group_4" data-name="Group 4" transform="translate(1.067 1.067)">
            <path id="Path_21" data-name="Path 21" d="M551.8,452.285v-3.5a1.959,1.959,0,0,1,2.156-1.949l11.22,1.135a1.981,1.981,0,0,0,1.447-3.493l-8.737-7.131a1.959,1.959,0,0,1-.147-2.9l2.477-2.477a1.959,1.959,0,0,1,2.9.147l7.131,8.737a1.981,1.981,0,0,0,3.493-1.447l-1.136-11.22a1.96,1.96,0,0,1,1.949-2.156h3.5a1.959,1.959,0,0,1,1.949,2.156l-1.135,11.22a1.981,1.981,0,0,0,3.493,1.447l7.13-8.737a1.959,1.959,0,0,1,2.9-.147l2.477,2.477a1.959,1.959,0,0,1-.146,2.9l-8.737,7.131a1.981,1.981,0,0,0,1.447,3.493l11.22-1.135a1.959,1.959,0,0,1,2.156,1.948v3.5a1.96,1.96,0,0,1-2.156,1.95l-11.22-1.136a1.981,1.981,0,0,0-1.447,3.493l8.737,7.131a1.959,1.959,0,0,1,.146,2.9L592.4,469.1a1.959,1.959,0,0,1-2.9-.147l-7.13-8.737a1.981,1.981,0,0,0-3.493,1.447l1.135,11.22a1.959,1.959,0,0,1-1.949,2.156h-3.5a1.959,1.959,0,0,1-1.949-2.156l1.136-11.22a1.981,1.981,0,0,0-3.493-1.447l-7.131,8.737a1.959,1.959,0,0,1-2.9.147l-2.477-2.477a1.959,1.959,0,0,1,.147-2.9l8.737-7.131a1.981,1.981,0,0,0-1.447-3.493l-11.22,1.136A1.959,1.959,0,0,1,551.8,452.285Z" transform="translate(-551.798 -426.025)" fill="#bdc3c7"/>
            <circle id="Ellipse_3" data-name="Ellipse 3" cx="5.552" cy="5.552" r="5.552" transform="translate(17.255 27.513) rotate(-67.5)" fill="#ecf0f1"/>
          </g>
          <path id="Path_22" data-name="Path 22" d="M550.172,449.974A25.576,25.576,0,1,0,575.747,424.4,25.575,25.575,0,0,0,550.172,449.974Zm3.136,0a22.439,22.439,0,1,1,22.439,22.44A22.439,22.439,0,0,1,553.308,449.974Z" transform="translate(-550.172 -424.399)" fill="#bdc3c7"/>
        </g>
      </g>
      <path id="Rectangle_2" data-name="Rectangle 2" d="M0,0H79.15a0,0,0,0,1,0,0V7.445A39.575,39.575,0,0,1,39.575,47.02h0A39.575,39.575,0,0,1,0,7.445V0A0,0,0,0,1,0,0Z" transform="translate(119.818 138.861) rotate(-180)" fill="#2c3e50"/>
      <g id="Group_21" data-name="Group 21">
        <g id="Group_20" data-name="Group 20">
          <g id="Group_7" data-name="Group 7" transform="translate(389.398 139.903)">
            <path id="Path_23" data-name="Path 23" d="M690.638,483.234H666.907a5.925,5.925,0,0,1-5.132-2.966h28.862Z" transform="translate(-660.975 -477.302)" fill="#67809f"/>
            <path id="Path_24" data-name="Path 24" d="M690.218,475.748v2.966H661.356a5.894,5.894,0,0,1-.8-2.966Z" transform="translate(-660.556 -475.748)" fill="#889cb4"/>
          </g>
          <path id="Path_25" data-name="Path 25" d="M488.336,374.174a3.466,3.466,0,0,1-3.443-3.512v-2.479c0-25.219-18.475-48.368-52.6-53.825l-28.1-23.178c-21.931-19.443-50.224-28.618-79.532-28.618H278.291c-29.465,0-53.293,8.793-74.441,27.542l-32.291,27-8.829,1.114c-25.14,3.172-53.562,7.673-78.226,13.481h0a9.733,9.733,0,0,0-7.451,8.49l-2.844,28v2.479a3.466,3.466,0,0,1-3.444,3.512,3.51,3.51,0,0,0-3.577,3.51v13.527a11.254,11.254,0,0,0,11.255,11.255h33.309V394.1a35.934,35.934,0,0,1,35.934-35.934h0A35.934,35.934,0,0,1,183.619,394.1v8.364h190.3V394.1a35.934,35.934,0,0,1,35.934-35.934h0A35.934,35.934,0,0,1,445.785,394.1v8.364h34.874a11.255,11.255,0,0,0,11.255-11.255V377.684A3.51,3.51,0,0,0,488.336,374.174Z" transform="translate(-67.188 -262.562)" fill="#5c6d7e"/>
          <path id="Path_26" data-name="Path 26" d="M485.858,415.021H463.795a3.241,3.241,0,0,1-3.27-2.84,3.15,3.15,0,0,1,3.135-3.458H476.38a4.1,4.1,0,0,0,4.087-4.087v-1.9c0-20.528-15.4-37.58-33.344-39.664H182.952l-65.7,3.494a34.549,34.549,0,0,0-32.175,34.46v3.612a4.093,4.093,0,0,0,4.082,4.087h15.884a3.241,3.241,0,0,1,3.27,2.84,3.15,3.15,0,0,1-3.134,3.459h-22.2a12.926,12.926,0,0,1-1.629.993v10.154a10.89,10.89,0,0,0,10.912,10.89l24.358-.043v-8.364a35.934,35.934,0,0,1,35.934-35.934h0a35.934,35.934,0,0,1,35.934,35.934v8.364h190.3v-8.364a35.934,35.934,0,0,1,35.934-35.934h0a35.934,35.934,0,0,1,35.934,35.934v8.364l25.923.043a10.89,10.89,0,0,0,10.913-10.89V416.014A12.881,12.881,0,0,1,485.858,415.021Z" transform="translate(-72.056 -297.111)" fill="#34495e"/>
          <path id="Path_27" data-name="Path 27" d="M269.111,301.189l-21.5,19.062a22.328,22.328,0,0,0-1.642,1.617h110.49l.013-3.831V274.426h-16.83A106.222,106.222,0,0,0,269.111,301.189Z" transform="translate(-128.643 -266.64)" fill="#26bdee"/>
          <path id="Path_28" data-name="Path 28" d="M81.772,442.171H77.125a1.252,1.252,0,0,0-1.305,1.192v9.092a6.97,6.97,0,0,0,5.081,6.5,1.627,1.627,0,0,0,2.175-1.421V443.363A1.252,1.252,0,0,0,81.772,442.171Z" transform="translate(-70.155 -324.302)" fill="#afdff9"/>
          <g id="Group_8" data-name="Group 8" transform="translate(134.877 21.148)">
            <path id="Path_29" data-name="Path 29" d="M406.617,295.966a4.878,4.878,0,0,0-4.056-1.1h0a4.9,4.9,0,0,0-4.016,4.938l.326,13.708a4.9,4.9,0,0,0,5.787,4.706l.911-.167-1.074,2.471a10.246,10.246,0,0,0-10.777,6.03l-.982,2.261h13.881Z" transform="translate(-313.971 -294.788)" fill="#34495e"/>
            <path id="Path_30" data-name="Path 30" d="M277.662,331.824a2.653,2.653,0,0,0-4.594,2.653l3.819,6.615h6.125Z" transform="translate(-272.714 -307.064)" fill="#34495e"/>
          </g>
          <g id="Group_9" data-name="Group 9" transform="translate(207.272 62.46)">
            <path id="Path_31" data-name="Path 31" d="M394.525,366.567h-8a3.5,3.5,0,0,1-3.5-3.5h14.991A3.5,3.5,0,0,1,394.525,366.567Z" transform="translate(-383.031 -359.571)" fill="#d1d3d4"/>
            <path id="Path_32" data-name="Path 32" d="M398.022,361.237H383.031a3.5,3.5,0,0,1,3.5-3.5h8a3.5,3.5,0,0,1,3.5,3.5Z" transform="translate(-383.031 -357.739)" fill="#ecf0f1"/>
          </g>
          <g id="Group_10" data-name="Group 10" transform="translate(317.613 62.46)">
            <path id="Path_33" data-name="Path 33" d="M562.664,366.567h-8a3.5,3.5,0,0,1-3.5-3.5h14.991A3.5,3.5,0,0,1,562.664,366.567Z" transform="translate(-551.17 -359.571)" fill="#d1d3d4"/>
            <path id="Path_34" data-name="Path 34" d="M566.161,361.237H551.17a3.5,3.5,0,0,1,3.5-3.5h8a3.5,3.5,0,0,1,3.5,3.5Z" transform="translate(-551.17 -357.739)" fill="#ecf0f1"/>
          </g>
          <path id="Path_35" data-name="Path 35" d="M732.5,479.646a9.406,9.406,0,1,1,8.7-10.066A9.406,9.406,0,0,1,732.5,479.646Z" transform="translate(-292.42 -330.726)" fill="#fff" opacity="0.8"/>
          <path id="Path_36" data-name="Path 36" d="M720.821,480.107a3.439,3.439,0,1,1,3.179-3.68A3.439,3.439,0,0,1,720.821,480.107Z" transform="translate(-290.606 -334.982)" fill="#fff"/>
          <circle id="Ellipse_4" data-name="Ellipse 4" cx="1.731" cy="1.731" r="1.731" transform="translate(420.608 141.233)" fill="#fff"/>
          <g id="Group_11" data-name="Group 11" transform="translate(386.331 67.975)">
            <path id="Path_37" data-name="Path 37" d="M678.424,399.2h2.739a2.524,2.524,0,0,0,2.479-2.954,45.269,45.269,0,0,0-17.7-28.958,5.83,5.83,0,0,0-7.938.964A40.83,40.83,0,0,1,678.424,399.2Z" transform="translate(-656.613 -366.143)" fill="#ed1c24"/>
            <path id="Path_38" data-name="Path 38" d="M658.228,377.872A33.559,33.559,0,0,1,670.6,396.036a5.843,5.843,0,0,0,5.662,4.268h1.436a40.83,40.83,0,0,0-20.418-30.949,5.9,5.9,0,0,0,.952,8.517Z" transform="translate(-655.883 -367.247)" fill="#f9920e"/>
          </g>
          <path id="Path_39" data-name="Path 39" d="M507.169,301.109l19.376,19.062a21.423,21.423,0,0,1,1.479,1.617H428.46l-.013-3.831V274.346h15.166C467.056,274.346,489.628,283.85,507.169,301.109Z" transform="translate(-191.371 -266.613)" fill="#a1d9f6"/>
          <path id="Path_40" data-name="Path 40" d="M555.042,324.443l11.723,11.534.345,1.879a4.869,4.869,0,0,1,.062,1.154H549.636Z" transform="translate(-233.029 -283.834)" fill="#6c7a89"/>
          <g id="Group_12" data-name="Group 12" transform="translate(307.241 27.969)">
            <rect id="Rectangle_3" data-name="Rectangle 3" width="2.446" height="27.206" fill="#425568"/>
          </g>
          <path id="Path_41" data-name="Path 41" d="M696,442.171h4.646a1.252,1.252,0,0,1,1.3,1.192v9.092a6.97,6.97,0,0,1-5.081,6.5,1.627,1.627,0,0,1-2.175-1.421V443.363A1.253,1.253,0,0,1,696,442.171Z" transform="translate(-282.895 -324.302)" fill="#ed1c24"/>
          <g id="Group_16" data-name="Group 16" transform="translate(110.509 6.677)">
            <g id="Group_13" data-name="Group 13" transform="translate(0 0.003)">
              <path id="Path_42" data-name="Path 42" d="M352.156,317.4V274.848H336.38a105.173,105.173,0,0,0-69.832,26.5l-21.5,19.062a21.261,21.261,0,0,0-6.73,11.711h-2.143a23.368,23.368,0,0,1,7.475-13.288l21.5-19.062a107.274,107.274,0,0,1,71.229-27.028h17.883v44.664l-.051,14.714H352.1Z" transform="translate(-235.786 -272.741)" fill="#425568"/>
              <path id="Path_43" data-name="Path 43" d="M238.113,363.222a21.231,21.231,0,0,0-.423,4.19v11.831a48.494,48.494,0,0,0,7.385,25.357,45.8,45.8,0,0,1,6.734,22.121h99.869l.223-63.5h2.107l-.23,65.606H249.757l-.021-1.032a43.744,43.744,0,0,0-6.438-22.064,49.845,49.845,0,0,1-7.57-25.463l-.145-12.857a23.323,23.323,0,0,1,.387-4.19Z" transform="translate(-235.583 -303.844)" fill="#2c3e50"/>
              <rect id="Rectangle_4" data-name="Rectangle 4" width="10.793" height="2.124" transform="translate(5.91 122.86)" fill="#2c3e50"/>
            </g>
            <g id="Group_14" data-name="Group 14" transform="translate(6.92 47.444)">
              <rect id="Rectangle_5" data-name="Rectangle 5" width="109.579" height="2.107" fill="#425568"/>
            </g>
            <g id="Group_15" data-name="Group 15" transform="translate(125.512)">
              <path id="Path_44" data-name="Path 44" d="M429.02,362.744l.2,63.81H489.7a43.088,43.088,0,0,1,38.687-41.8V362.744H530.5v22.975a1.06,1.06,0,0,1-.973,1.051A40.976,40.976,0,0,0,491.8,427.61v1.055H427.117l-.208-65.921Z" transform="translate(-426.864 -303.677)" fill="#2c3e50"/>
              <path id="Path_45" data-name="Path 45" d="M428.951,317.4,429,332.058h-2.111l-.046-14.651v-44.67h16.221c23.721,0,46.555,9.612,64.3,27.066l19.428,19.113a12.825,12.825,0,0,1,3.693,9.092v4.017h-2.11v-4.017a10.716,10.716,0,0,0-3.076-7.6l-19.413-19.1c-17.343-17.063-39.653-26.461-62.816-26.461H428.951Z" transform="translate(-426.84 -272.737)" fill="#425568"/>
            </g>
          </g>
          <g id="Group_19" data-name="Group 19" transform="translate(33.687 85.225)">
            <circle id="Ellipse_5" data-name="Ellipse 5" cx="32.92" cy="32.92" r="32.92" transform="translate(0 46.556) rotate(-45)" fill="#333"/>
            <path id="Path_46" data-name="Path 46" d="M155.27,451.617a22.44,22.44,0,1,1,43.5,7.75H156.645A22.386,22.386,0,0,1,155.27,451.617Z" transform="translate(-131.153 -405.061)" fill="#22313f"/>
            <path id="Path_47" data-name="Path 47" d="M199.494,475.18a22.448,22.448,0,0,1-42.129,0Z" transform="translate(-131.873 -420.874)" fill="#f3e8d5"/>
            <circle id="Ellipse_6" data-name="Ellipse 6" cx="17.547" cy="17.547" r="17.547" transform="translate(25.447 59.603) rotate(-76.717)" fill="#5c6d7e"/>
            <g id="Group_18" data-name="Group 18" transform="translate(20.98 20.981)">
              <g id="Group_17" data-name="Group 17" transform="translate(1.068 1.067)">
                <path id="Path_48" data-name="Path 48" d="M152.117,452.285v-3.5a1.959,1.959,0,0,1,2.156-1.949l11.22,1.135a1.981,1.981,0,0,0,1.447-3.493l-8.737-7.131a1.958,1.958,0,0,1-.147-2.9l2.477-2.477a1.959,1.959,0,0,1,2.9.147l7.131,8.737a1.981,1.981,0,0,0,3.493-1.447l-1.136-11.22a1.96,1.96,0,0,1,1.949-2.156h3.5a1.959,1.959,0,0,1,1.949,2.156L179.19,439.4a1.981,1.981,0,0,0,3.494,1.447l7.13-8.737a1.959,1.959,0,0,1,2.9-.147l2.477,2.477a1.959,1.959,0,0,1-.146,2.9l-8.737,7.131a1.981,1.981,0,0,0,1.447,3.493l11.22-1.135a1.958,1.958,0,0,1,2.156,1.948v3.5a1.959,1.959,0,0,1-2.156,1.95l-11.22-1.136a1.981,1.981,0,0,0-1.447,3.493l8.737,7.131a1.959,1.959,0,0,1,.146,2.9l-2.477,2.477a1.959,1.959,0,0,1-2.9-.147l-7.13-8.737a1.981,1.981,0,0,0-3.494,1.447l1.136,11.22a1.959,1.959,0,0,1-1.949,2.156h-3.5a1.959,1.959,0,0,1-1.949-2.156l1.136-11.22a1.981,1.981,0,0,0-3.493-1.447l-7.131,8.737a1.959,1.959,0,0,1-2.9.147l-2.477-2.477a1.958,1.958,0,0,1,.147-2.9l8.737-7.131a1.981,1.981,0,0,0-1.447-3.493l-11.22,1.136A1.959,1.959,0,0,1,152.117,452.285Z" transform="translate(-152.117 -426.025)" fill="#bdc3c7"/>
                <circle id="Ellipse_7" data-name="Ellipse 7" cx="5.552" cy="5.552" r="5.552" transform="translate(17.83 20.381) rotate(-13.283)" fill="#ecf0f1"/>
              </g>
              <path id="Path_49" data-name="Path 49" d="M150.49,449.974A25.576,25.576,0,1,0,176.066,424.4,25.576,25.576,0,0,0,150.49,449.974Zm3.137,0a22.439,22.439,0,1,1,22.439,22.44A22.439,22.439,0,0,1,153.627,449.974Z" transform="translate(-150.49 -424.399)" fill="#bdc3c7"/>
            </g>
          </g>
        </g>
      </g>
      <path id="Path_50" data-name="Path 50" d="M428.377,347.171H528.542l-1.258-2.146H428.377Z" transform="translate(-191.347 -290.908)" fill="#425568"/>
      <path id="Path_51" data-name="Path 51" d="M87.224,401.884a34.553,34.553,0,0,1,18.813-27.931l1.692,1.774a4.734,4.734,0,0,1,1.08,4.747C106.722,386.818,100.382,401.879,87.224,401.884Z" transform="translate(-74.075 -300.853)" fill="#afdff9"/>
      <path id="Path_52" data-name="Path 52" d="M531.524,460.269H525.5V462h5.959Z" transform="translate(-224.734 -330.524)" fill="#2c3e50"/>
      <path id="Path_53" data-name="Path 53" d="M251.4,343.221h2.207V323.18H251.4v20.041Z" transform="translate(-130.511 -283.399)" fill="#2c3e50"/>
      <path id="Path_54" data-name="Path 54" d="M245.958,323.18a10.027,10.027,0,1,0,0,20.041V323.18Z" transform="translate(-125.068 -283.399)" fill="#34495e"/>
    </g>
    <g id="Group_23" data-name="Group 23" transform="translate(15.406 59.333)">
      <g id="Group_22" data-name="Group 22">
        <path id="Path_55" data-name="Path 55" d="M536.753,360.163h0a7.189,7.189,0,0,1,7.189,7.189h0a7.189,7.189,0,0,1,7.188-7.189h0a7.188,7.188,0,0,1-7.188-7.189h0A7.189,7.189,0,0,1,536.753,360.163Z" transform="translate(-244.007 -352.974)" fill="#fff"/>
        <path id="Path_56" data-name="Path 56" d="M589.018,454.852h0a3.968,3.968,0,0,1,3.968,3.968h0a3.969,3.969,0,0,1,3.969-3.968h0a3.969,3.969,0,0,1-3.969-3.969h0A3.969,3.969,0,0,1,589.018,454.852Z" transform="translate(-261.973 -386.63)" fill="#fff"/>
        <path id="Path_57" data-name="Path 57" d="M190.346,455.556h0a3.968,3.968,0,0,1,3.968,3.968h0a3.969,3.969,0,0,1,3.969-3.968h0a3.969,3.969,0,0,1-3.969-3.969h0A3.969,3.969,0,0,1,190.346,455.556Z" transform="translate(-124.93 -386.872)" fill="#fff"/>
        <path id="Path_58" data-name="Path 58" d="M697.5,439.731h0a4.186,4.186,0,0,1,4.185,4.186h0a4.186,4.186,0,0,1,4.186-4.186h0a4.185,4.185,0,0,1-4.186-4.185h0A4.185,4.185,0,0,1,697.5,439.731Z" transform="translate(-299.265 -381.358)" fill="#fff"/>
        <path id="Path_59" data-name="Path 59" d="M90.664,388.185h0a6.678,6.678,0,0,1,6.678,6.678h0a6.678,6.678,0,0,1,6.679-6.678h0a6.679,6.679,0,0,1-6.679-6.679h0A6.679,6.679,0,0,1,90.664,388.185Z" transform="translate(-90.664 -362.782)" fill="#fff"/>
        <path id="Path_60" data-name="Path 60" d="M653.741,369.074h0a2.968,2.968,0,0,1,2.951,2.986h0a3.064,3.064,0,0,1,3.082-3.073v-.026a2.942,2.942,0,0,1-2.952-2.934H656.8A3.065,3.065,0,0,1,653.741,369.074Z" transform="translate(-284.222 -357.461)" fill="#fff"/>
        <path id="Path_61" data-name="Path 61" d="M634.184,361.3h0a5.009,5.009,0,0,1,5.009,5.009h0A5.009,5.009,0,0,1,644.2,361.3h0a5.009,5.009,0,0,1-5.009-5.009h0A5.009,5.009,0,0,1,634.184,361.3Z" transform="translate(-277.499 -354.116)" fill="#fff"/>
      </g>
    </g>
  </g>
  <g id="man" transform="translate(157.991)">
    <g id="Group_26" data-name="Group 26" transform="translate(3.022 96.716)">
      <g id="Group_25" data-name="Group 25">
        <g id="Group_24" data-name="Group 24">
          <path id="Path_62" data-name="Path 62" d="M331.056,317.539a65.616,65.616,0,0,0,3.684-10.893l-9.142-1.962,4.571.981-4.569-.992c-.039.182-2.845,12.393-13.059,26.54h11.348A96.71,96.71,0,0,0,331.056,317.539Z" transform="translate(-312.54 -304.673)" fill="#4a4b4d"/>
        </g>
      </g>
    </g>
    <g id="Group_38" data-name="Group 38">
      <g id="Group_37" data-name="Group 37">
        <path id="Path_63" data-name="Path 63" d="M320.18,179.686c.319-4.085,3.682-7.137,7.214-6.675l30.276,3.68a6.457,6.457,0,0,1,5.844,6.677s-.4,4.069-.592,10.329c-.215,6.249-.156,14.694.343,23.194.473,8.5,1.368,17.029,2.165,23.42.445,3.195.788,5.858,1.071,7.72l.457,2.925-42.97,6.707s-.184-1.182-.506-3.25-.7-5.046-1.193-8.607c-.893-7.15-1.9-16.732-2.443-26.45-.569-9.71-.647-19.565-.39-27.064C319.683,184.8,320.18,179.686,320.18,179.686Z" transform="translate(-311.847 -162.683)" fill="#eec595"/>
        <path id="Path_64" data-name="Path 64" d="M327.393,173.011l8.4,1.021q-.2,1.719-.411,3.537-.159,1.809-.327,3.7-.083.946-.167,1.912-.058.961-.118,1.939-.117,1.956-.237,3.971c-.206,5.352-.354,10.967-.228,16.538.062,5.581.354,11.123.674,16.386.207,2.623.408,5.178.6,7.632.241,2.445.472,4.789.689,7,.329,2.771.632,5.329.9,7.608.31,2.271.583,4.262.808,5.909s.442,2.941.573,3.829.213,1.363.213,1.363l-14.779,2.307s-.184-1.182-.506-3.25-.7-5.046-1.193-8.607c-.893-7.15-1.9-16.732-2.443-26.45-.569-9.71-.647-19.565-.39-27.064.228-7.488.725-12.6.725-12.6C320.5,175.6,323.862,172.549,327.393,173.011Z" transform="translate(-311.847 -162.683)" fill="#f8d4ac"/>
        <path id="Path_65" data-name="Path 65" d="M374.991,320.718c-.863-3.588-1.572-7.2-2.307-10.581-.643-3.391-1.3-6.548-1.763-9.268-.979-5.432-1.517-9.063-1.517-9.063l-42.97,6.707c.013.073,2.04,12.761,5.337,28.277h44.649C375.93,324.8,375.448,322.761,374.991,320.718Z" transform="translate(-314.294 -203.534)" fill="#313437"/>
        <path id="Path_66" data-name="Path 66" d="M342.967,308.9c-.537-3.113-1.013-5.7-1.3-7.522s-.447-2.863-.447-2.863l-14.76,2.3s.168,1.078.463,2.965.786,4.561,1.342,7.781c.91,4.93,2.107,11.112,3.527,17.534H347.11C345.411,321.74,344,314.485,342.967,308.9Z" transform="translate(-314.304 -205.839)" fill="#4a4b4d"/>
        <g id="Group_27" data-name="Group 27" transform="translate(34.821 31.525)">
          <path id="Path_67" data-name="Path 67" d="M365.58,209.8a.423.423,0,0,0,.09-.689l-2-1.817c-.992-.9-1.951-1.828-1.961-1.837a.424.424,0,1,0-.589.61c.01.009.979.944,1.979,1.854l2,1.818A.422.422,0,0,0,365.58,209.8Z" transform="translate(-360.995 -205.336)" fill="#714514"/>
        </g>
        <g id="Group_28" data-name="Group 28" transform="translate(9.281 33.191)">
          <path id="Path_68" data-name="Path 68" d="M322.7,212.881a.417.417,0,0,0,.154-.136l2.886-4.208a.423.423,0,1,0-.7-.479l-2.886,4.208a.424.424,0,0,0,.545.616Z" transform="translate(-322.078 -207.874)" fill="#714514"/>
        </g>
        <path id="Path_69" data-name="Path 69" d="M349.93,325.868c.049-1.022.1-2.078.151-3.151.069-1.073.139-2.163.209-3.253.253-4.347.633-8.683.912-11.914.127-1.614.289-2.965.381-3.905s.154-1.477.154-1.477,4.476-2.208,8.964-4.346l6.192-2.917,2.827-1.307-.295-1.889-43.112,6.722.327,2.1,1,.777c.6.465,1.406,1.082,2.225,1.69l3.255,2.421.657,1.4c.424.887,1,2.161,1.752,3.666,1.484,3.019,3.446,7.024,5.52,10.959l1.525,2.936,1.286,2.379h6.026C349.9,326.461,349.916,326.169,349.93,325.868Z" transform="translate(-314.253 -203.501)" fill="#fff"/>
        <g id="Group_29" data-name="Group 29" transform="translate(11.187 39.651)">
          <path id="Path_70" data-name="Path 70" d="M355.759,221.182a2.966,2.966,0,0,0,3.036,2.936,3.252,3.252,0,0,0-.595-6.393A3,3,0,0,0,355.759,221.182Z" transform="translate(-335.556 -217.717)" fill="#231f20"/>
          <path id="Path_71" data-name="Path 71" d="M359.868,219.551a.7.7,0,1,0,.612-.86A.754.754,0,0,0,359.868,219.551Z" transform="translate(-336.973 -218.051)" fill="#fff"/>
          <path id="Path_72" data-name="Path 72" d="M325,223.673a2.736,2.736,0,0,0,2.72,2.783c1.339-.154,2.261-1.616,2.13-3.286a2.768,2.768,0,0,0-2.686-2.8C325.821,220.493,324.851,221.974,325,223.673Z" transform="translate(-324.982 -218.626)" fill="#231f20"/>
          <path id="Path_73" data-name="Path 73" d="M328.6,222.131a.706.706,0,0,0,.69.72.73.73,0,0,0,.557-.842.711.711,0,0,0-.69-.721A.729.729,0,0,0,328.6,222.131Z" transform="translate(-326.225 -218.944)" fill="#fff"/>
        </g>
        <path id="Path_74" data-name="Path 74" d="M313.113,184.547c1.156-5.636,4.555-6.646,6.853-5.684,2.32.965,3.562,3.79.624,6.209-1.437,1.2-2.351,3.606-2.866,5.929a33.811,33.811,0,0,0-.656,5.446c-.043,1.8-.055,4.64-.075,6.391a17.239,17.239,0,0,1-3.458-6.558,25.231,25.231,0,0,1-.9-5.3A26.929,26.929,0,0,1,313.113,184.547Z" transform="translate(-309.54 -164.6)" fill="#714514"/>
        <path id="Path_75" data-name="Path 75" d="M344.523,260.422a12.646,12.646,0,0,1-9.253-.285,10.34,10.34,0,0,1-5.8-6.534s5.877-1.923,11.762-3.741,11.778-3.552,11.778-3.552a10.29,10.29,0,0,1-1.2,8.336A13.557,13.557,0,0,1,344.523,260.422Z" transform="translate(-315.339 -187.895)" fill="#582a1a"/>
        <path id="Path_76" data-name="Path 76" d="M355,202.36a17.244,17.244,0,0,0,7.2-6.977,24.481,24.481,0,0,0,2.231-4.772,23.2,23.2,0,0,0,1.251-4.972,18.1,18.1,0,0,0,.161-4.746,12.175,12.175,0,0,0-1.074-4.136,8.729,8.729,0,0,0-2.5-3.161,9.3,9.3,0,0,0-4.137-1.761,8.382,8.382,0,0,0-.306-4.413,11.034,11.034,0,0,0-2.578-3.926,21.372,21.372,0,0,0-10.745-5.4,24.018,24.018,0,0,0-14.572,1.345c-3.918,1.621-6.762,3.837-8.75,4.753a3.74,3.74,0,0,1-4.585-.9,4.2,4.2,0,0,1,.177-5.175c.251-.347-.131-.838-.5-.816-2.4.154-4.478,1.691-5.994,4.005a14.208,14.208,0,0,0-1.023,1.86,14.547,14.547,0,0,0-.722,2.033,16.093,16.093,0,0,0-.586,4.385,11.371,11.371,0,0,0,3.147,7.866c2.106,2.065,5.287,3.334,9.749,3.254,7.964-.151,13.468-2.09,18.181-3.008,4.722-.94,8.52-.863,13.059,2.454a9.671,9.671,0,0,1,3.535,5.7,26.278,26.278,0,0,1,.606,7.315c-.043,1.219-.162,2.4-.284,3.485s-.249,2.088-.388,2.934C355.265,201.277,355,202.36,355,202.36Z" transform="translate(-307.935 -157.297)" fill="#724514"/>
        <path id="Path_77" data-name="Path 77" d="M378.532,223.55a4.817,4.817,0,1,0,4.746-4.661A4.689,4.689,0,0,0,378.532,223.55Z" transform="translate(-332.203 -178.469)" fill="#eec595"/>
        <g id="Group_31" data-name="Group 31" transform="translate(19.745 45.387)">
          <path id="Path_78" data-name="Path 78" d="M384.768,228.637l.808-.028a1.106,1.106,0,0,0,1.1-1.11h0a1.123,1.123,0,0,0-1.175-1.042l-.808.022a1.1,1.1,0,0,0-1.1,1.113A1.116,1.116,0,0,0,384.768,228.637Z" transform="translate(-353.688 -226.457)" fill="#d4a282"/>
          <g id="Group_30" data-name="Group 30" transform="translate(0 8.971)">
            <path id="Path_79" data-name="Path 79" d="M341.283,242.887a7.181,7.181,0,0,0,2.414-.516,1.18,1.18,0,0,0,.582-1.536,1.125,1.125,0,0,0-1.488-.614,6.165,6.165,0,0,1-3.311.175,1.11,1.11,0,0,0-1.408.78,1.2,1.2,0,0,0,.755,1.484A7.032,7.032,0,0,0,341.283,242.887Z" transform="translate(-338.023 -240.128)" fill="#d4a282"/>
          </g>
        </g>
        <path id="Path_80" data-name="Path 80" d="M352.073,186.024c-4.539-3.317-8.336-3.394-13.059-2.454-4.714.917-10.217,2.857-18.181,3.008-4.728.087-8.019-1.348-10.115-3.631a10.146,10.146,0,0,1-2.208-3.967,12.883,12.883,0,0,1-.543-4.588c.217,1.371-.015,4.268,3.126,7.257,2.33,2.162,5.154,2.651,8.2,2.369a49.789,49.789,0,0,0,9.755-2.428,58.887,58.887,0,0,1,10.147-2.552,16.139,16.139,0,0,1,9.308,1.213c5.012,2.469,6.772,5.555,7.4,8.119a9.965,9.965,0,0,1-.024,4.569h0a15.311,15.311,0,0,0-.513-2.038,11.522,11.522,0,0,0-.749-1.866A8.385,8.385,0,0,0,352.073,186.024Z" transform="translate(-307.936 -163.173)" fill="#4e2c02"/>
        <path id="Path_81" data-name="Path 81" d="M330.791,166.259c-4.157,2.817-7.519,4.051-10.089,4.09a5.79,5.79,0,0,1-5.36-2.763c-2.071-3.312-.816-8.871,3.126-10.289.374-.022.756.469.5.816a4.2,4.2,0,0,0-.177,5.175,3.74,3.74,0,0,0,4.585.9c1.988-.915,4.832-3.132,8.75-4.753a24.018,24.018,0,0,1,14.572-1.345,21.372,21.372,0,0,1,10.745,5.4,11.034,11.034,0,0,1,2.578,3.926,8.381,8.381,0,0,1,.306,4.413,8.691,8.691,0,0,1,5.774,3.464,9.747,9.747,0,0,1,1.437,2.935,15.389,15.389,0,0,1,.568,3.447,25.74,25.74,0,0,1-4.7,15.211,32.934,32.934,0,0,0,1.863-5.633c.257-1.1.519-2.238.68-3.412a32.455,32.455,0,0,0,.29-3.554,17.965,17.965,0,0,0-.244-3.512,14.245,14.245,0,0,0-.934-3.307A11.916,11.916,0,0,0,360.3,172a7.648,7.648,0,0,0-2.246-5.142,15.99,15.99,0,0,0-6.259-4C346.51,160.95,339.009,160.778,330.791,166.259Z" transform="translate(-310.142 -157.297)" fill="#86531e"/>
        <g id="Group_32" data-name="Group 32" transform="translate(21.589 91.785)">
          <path id="Path_82" data-name="Path 82" d="M355.331,320.568s-1.479-4.15-2.832-8.355c-.346-1.05-.692-2.1-1.015-3.084l-.839-2.706c-.49-1.587-.818-2.645-.818-2.645a2.724,2.724,0,0,0,2.187-3.163l-.539-3.456-10.642,1.659.553,3.546a2.755,2.755,0,0,0,3.133,2.323l.134,2.8c.041.841.089,1.823.141,2.875.069,1.049.143,2.169.217,3.289.266,4.488.671,8.966.671,8.966s1.423,2.781,3.166,6.013h6.045C355.091,324.718,355.331,320.568,355.331,320.568Z" transform="translate(-340.833 -297.159)" fill="#9c1723"/>
          <path id="Path_83" data-name="Path 83" d="M351.454,326.446c-.51-2.389-1.054-4.938-1.6-7.486-1.035-5.11-2-10.235-2.65-14.1-.347-1.925-.61-3.536-.777-4.667s-.277-1.774-.277-1.774l-5.32.83.553,3.546a2.755,2.755,0,0,0,3.133,2.323l.134,2.8c.041.841.089,1.823.141,2.875.069,1.049.143,2.169.217,3.289.266,4.488.671,8.966.671,8.966s1.5,3.107,3.166,6.013h3.211C351.863,328.217,351.662,327.348,351.454,326.446Z" transform="translate(-340.833 -297.593)" fill="#cb052f"/>
        </g>
        <path id="Path_84" data-name="Path 84" d="M335.939,264.419c1.519-1.46,4.934-2.672,8.988-3.05a21.914,21.914,0,0,1,7.565.469,13.89,13.89,0,0,1-5.745,3.719A12.351,12.351,0,0,1,335.939,264.419Z" transform="translate(-317.562 -193.03)" fill="#e37368"/>
        <g id="Group_36" data-name="Group 36" transform="translate(53.55 17.175)">
          <g id="Group_34" data-name="Group 34" transform="translate(30.771)">
            <path id="Path_85" data-name="Path 85" d="M436.766,192.165a1.641,1.641,0,0,1,1.624,1.648l-.033,4.538a.454.454,0,0,0,.45.457h0a.453.453,0,0,0,.457-.45l.093-12.94a.984.984,0,0,1,.837-.981.962.962,0,0,1,1.081.959l-.057,7.952.5,0,.064-8.894a.983.983,0,0,1,.837-.98.96.96,0,0,1,1.081.958l-.064,8.93.5,0,.059-8.335a.984.984,0,0,1,.838-.98.961.961,0,0,1,1.081.958l-.06,8.371.5,0,.048-6.783a.985.985,0,0,1,.838-.981.961.961,0,0,1,1.081.959l-.1,14.217a2.268,2.268,0,0,1-1.4,2.072l-.036,5-7.246-.052.027-3.76a3.765,3.765,0,0,1-3.331-3.755l.058-8.145Z" transform="translate(-436.425 -183.468)" fill="#eec595"/>
            <g id="Group_33" data-name="Group 33" transform="translate(2.918 22.346)">
              <rect id="Rectangle_6" data-name="Rectangle 6" width="8.411" height="3.777" transform="translate(8.411 3.837) rotate(-179.591)" fill="#fff"/>
            </g>
          </g>
          <g id="Group_35" data-name="Group 35" transform="translate(0 25.942)">
            <path id="Path_86" data-name="Path 86" d="M411.694,271.03c9.863-6.9,20.009-17.421,20.517-47.877L422.989,223c-.429,25.758-8.6,34.861-16.53,40.441-3.9,2.747-12.754,6.657-15.717,7.662-.432.146-.835.283-1.207.413l3.054,8.7c.343-.12.717-.246,1.116-.382C396.9,278.755,406.7,274.523,411.694,271.03Z" transform="translate(-389.535 -222.999)" fill="#313437"/>
          </g>
        </g>
      </g>
    </g>
  </g>
  <path id="Path_87" data-name="Path 87" d="M379.892,339.509V328.964h-16.83a106.242,106.242,0,0,0-46.169,10.545Z" transform="translate(-153.024 -216.307)" fill="#a1d9f6" opacity="0.8"/>
</svg>
