<svg xmlns="http://www.w3.org/2000/svg" width="21.4" height="24.6" viewBox="0 0 21.4 24.6">
  <g id="Group_607" data-name="Group 607" transform="translate(-39.4 -32.1)">
    <path id="Path_658" data-name="Path 658" d="M50.1,32.1a1.538,1.538,0,0,0-1.5,1.5V46l-4.4-4.4a1.485,1.485,0,0,0-2.1,2.1l7,7a1.713,1.713,0,0,0,2.2,0l7-7a1.485,1.485,0,0,0-2.1-2.1L51.8,46V33.7A1.9,1.9,0,0,0,50.1,32.1Z" fill="#fff"/>
    <path id="Path_659" data-name="Path 659" d="M60.8,57.2a1.538,1.538,0,0,0-1.5-1.5H40.9a1.5,1.5,0,1,0,0,3H59.3A1.473,1.473,0,0,0,60.8,57.2Z" transform="translate(0 -2)" fill="#fff"/>
  </g>
</svg>
