<svg xmlns="http://www.w3.org/2000/svg" width="112.235" height="45.282" viewBox="0 0 112.235 45.282">
  <g id="Group_2" data-name="Group 2" transform="translate(0.118 15)">
    <g id="Group_1" data-name="Group 1" transform="translate(-0.118 -15)">
      <path id="Path_1" data-name="Path 1" d="M1324.074,657l.1,7.951a2.858,2.858,0,0,1-.908,2.113,3.142,3.142,0,0,1-2.182.871h0a3.064,3.064,0,0,1-3.086-2.973c0-.543-.018-6.217-.041-7.5l-.008-.449h-.072V657L1313.4,657l.1,7.951a2.856,2.856,0,0,1-.907,2.113,3.142,3.142,0,0,1-2.182.872h0a3.064,3.064,0,0,1-3.086-2.973c0-.522-.017-6.192-.04-7.5l-.008-.449-4.407-.005v.458c0,.848.031,3.076.057,4.867.018,1.255.034,2.318.033,2.6a7.273,7.273,0,0,0,7.471,7.038h.009a7.7,7.7,0,0,0,5.337-2.1l.006-.006.022.023a7.668,7.668,0,0,0,5.3,2.079h.009a7.7,7.7,0,0,0,5.337-2.1,6.676,6.676,0,0,0,2.143-4.905l-.042-7.966Z" transform="translate(-1302.86 -626.686)" fill="#fff"/>
      <path id="Path_2" data-name="Path 2" d="M1472.47,661.2v-3.866h-13.38v4.187h7.666l-7.717,6.715V672.1H1472.6v-4.187h-7.377Z" transform="translate(-1411.967 -626.924)" fill="#fff"/>
      <path id="Path_3" data-name="Path 3" d="M1522.574,657.067a8.549,8.549,0,0,0-7.682.026,6.54,6.54,0,0,0-2.637,2.65,8.27,8.27,0,0,0-.938,4.009,8.185,8.185,0,0,0,.951,4.01,6.618,6.618,0,0,0,2.65,2.65,7.93,7.93,0,0,0,3.855.925c5.091-.21,6.471-3.5,6.471-3.5l-3.962-1.377a3.152,3.152,0,0,1-2.5,1.04,3.042,3.042,0,0,1-1.978-.675,2.186,2.186,0,0,1-.742-1.542h9.99l.016-.135c.052-.457.052-1.219.052-1.628a7.811,7.811,0,0,0-.939-3.881A6.509,6.509,0,0,0,1522.574,657.067Zm-6.547,5.03a3.377,3.377,0,0,1,.915-1.465,2.67,2.67,0,0,1,1.779-.612,2.919,2.919,0,0,1,1.972.629,3.257,3.257,0,0,1,.92,1.447Z" transform="translate(-1448.488 -626.108)" fill="#fff"/>
      <path id="Path_4" data-name="Path 4" d="M1585.821,661.921a6.751,6.751,0,0,0-1.59-4.735,5.149,5.149,0,0,0-1.593-1.176,5.21,5.21,0,0,0-.878-.416c-1.208-.441-4.562-.593-6.244.967v-.943h-4.741v15.126h4.741v-8.207a3.226,3.226,0,0,1,.758-2.283,2.973,2.973,0,0,1,4.075,0,3.228,3.228,0,0,1,.758,2.283v1.324h-.016v.152c0,.623,0,1.228-.005,1.792,0,1.171-.009,4.319.005,4.948l4.743.008C1585.835,670.438,1585.821,661.921,1585.821,661.921Z" transform="translate(-1490.025 -625.497)" fill="#fff"/>
      <path id="Path_5" data-name="Path 5" d="M1407.228,658.088a8.135,8.135,0,0,0-.914-.552,6.368,6.368,0,0,0-2.972-.672,8.294,8.294,0,0,0-3.964.938,7.052,7.052,0,0,0-2.772,2.636,7.44,7.44,0,0,0-1.005,3.864,7.672,7.672,0,0,0,.972,3.867,7.105,7.105,0,0,0,2.634,2.661,7.215,7.215,0,0,0,3.664.961,6.782,6.782,0,0,0,3.334-.805,9.706,9.706,0,0,0,1.024-.651v1.207h4.372v-14.4h-4.372Zm-.366,8.2a3.471,3.471,0,0,1-1.318,1.358,3.906,3.906,0,0,1-2.008.5,3.743,3.743,0,0,1-1.953-.5,3.463,3.463,0,0,1-1.318-1.357,4.072,4.072,0,0,1-.477-1.982,4,4,0,0,1,.475-1.967,3.406,3.406,0,0,1,1.315-1.333,3.821,3.821,0,0,1,1.958-.49,3.909,3.909,0,0,1,2.008.5,3.493,3.493,0,0,1,1.32,1.348,3.951,3.951,0,0,1,.475,1.942A4.076,4.076,0,0,1,1406.863,666.284Z" transform="translate(-1367.648 -626.593)" fill="#fff"/>
      <path id="Path_6" data-name="Path 6" d="M1313.036,598.107h1.434a9.056,9.056,0,0,0,6.461-2.682,8.766,8.766,0,0,0,2.592-6.267l-.051-6.882-4.757-.006.116,6.854a4.407,4.407,0,0,1-1.288,3.171,6.579,6.579,0,0,1-3.837,1.519,6.319,6.319,0,0,1-3.743-1.519,4.408,4.408,0,0,1-1.288-3.171l.116-6.854-4.757.006-.052,6.882a8.765,8.765,0,0,0,2.592,6.267A9.055,9.055,0,0,0,1313.036,598.107Z" transform="translate(-1303.644 -574.482)" fill="#fff"/>
      <path id="Path_7" data-name="Path 7" d="M1425.5,579.592l-.121-23.155-4.285-.005.121,23.155Z" transform="translate(-1385.457 -556.432)" fill="#fff"/>
      <path id="Path_8" data-name="Path 8" d="M1330.847,598.191a2.373,2.373,0,1,0-2.373-2.374A2.376,2.376,0,0,0,1330.847,598.191Z" transform="translate(-1320.754 -582.289)" fill="#fff"/>
      <path id="Path_9" data-name="Path 9" d="M1396.169,561.3a2.374,2.374,0,1,0-2.374-2.374A2.376,2.376,0,0,0,1396.169,561.3Z" transform="translate(-1366.387 -556.517)" fill="#fff"/>
      <path id="Path_10" data-name="Path 10" d="M1451.879,592.534h.026a5.189,5.189,0,0,1-2.924,1.725l.89,3.608a8.959,8.959,0,0,0,6.745-6.187,12.551,12.551,0,0,0,.62-4.531,5.36,5.36,0,1,0-5.356,5.386Zm0-6.7a1.5,1.5,0,1,1-1.539,1.494A1.519,1.519,0,0,1,1451.879,585.835Z" transform="translate(-1403.219 -574.381)" fill="#fff"/>
      <path id="Path_11" data-name="Path 11" d="M1385.649,591.277a11.9,11.9,0,0,0,.865-4.741v-4.763h-4.671v4.818l0,.055.006.078a7.642,7.642,0,0,1-.6,3.028,5.783,5.783,0,0,1-4.59,3.446l.92,4.423A10.31,10.31,0,0,0,1385.649,591.277Z" transform="translate(-1354.415 -574.135)" fill="#fff"/>
      <path id="Path_12" data-name="Path 12" d="M1519.186,592.53h0l.057-.042c.059-.042.12-.082.177-.128.016-.013.031-.027.046-.041l2.967-2.246-2.769-3.658-2.29,1.733-10.287-12.575-3.579,2.871,10.97,13.374A3.513,3.513,0,0,0,1519.186,592.53Z" transform="translate(-1443.033 -569.804)" fill="#fff"/>
      <path id="Path_13" data-name="Path 13" d="M1567.27,579.633l21.357-18.328-2.961-3.505-21.285,18.267-9.52-11.926-3.6,2.843,9.579,12A4.5,4.5,0,0,0,1567.27,579.633Z" transform="translate(-1476.391 -557.388)" fill="#fff"/>
      <path id="Path_14" data-name="Path 14" d="M1589.689,591.384a2.743,2.743,0,1,0-2.743-2.743A2.743,2.743,0,0,0,1589.689,591.384Z" transform="translate(-1501.322 -577.016)" fill="#fff"/>
    </g>
  </g>
</svg>
